Coordinates
version=1
nRows=13
nColumns=36
inDegrees=yes

Units are S.I. units (second, meters, Newtons, ...)
If the header above contains a line with 'inDegrees', this indicates whether rotational values are in degrees (yes) or radians (no).

endheader
time	pelvis_tilt	pelvis_list	pelvis_rotation	pelvis_tx	pelvis_ty	pelvis_tz	hip_flexion_r	hip_adduction_r	hip_rotation_r	knee_angle_r	knee_angle_r_beta	ankle_angle_r	subtalar_angle_r	mtp_angle_r	hip_flexion_l	hip_adduction_l	hip_rotation_l	knee_angle_l	knee_angle_l_beta	ankle_angle_l	subtalar_angle_l	mtp_angle_l	lumbar_extension	lumbar_bending	lumbar_rotation	arm_flex_r	arm_add_r	arm_rot_r	elbow_flex_r	pro_sup_r	arm_flex_l	arm_add_l	arm_rot_l	elbow_flex_l	pro_sup_l
     14.96666670	      0.22761870	      4.85988953	      3.68068501	      0.80196780	      0.93910708	      0.72352894	     -5.09061830	     -5.90841347	      4.80647508	     46.59537240	      0.81324266	    -11.00561232	    -11.15539688	     -7.49999987	     23.87849118	      6.16441374	      5.71412373	     32.34199429	      0.56447429	      8.84330065	     -9.00042745	     -7.49999987	    -18.58090332	     -9.82720001	      5.90926197	      5.35998589	    -15.08336798	     10.10875678	     39.13926983	     74.34881495	      2.32778235	    -12.16517141	      2.63379144	     19.31514209	     71.16674143
     14.98333330	      0.70928319	      4.40283976	      3.43406623	      0.79934374	      0.94023067	      0.72164768	     -2.51747085	     -5.42021408	      4.39863595	     51.68444165	      0.90206368	    -10.89214978	    -11.76256097	     -7.49999987	     21.50928730	      5.61302630	      5.82663005	     30.85790497	      0.53857204	      9.07665413	     -9.50118504	     -7.49999987	    -18.87824746	     -9.38442471	      5.17945760	      4.59223692	    -14.68713143	     10.30875928	     39.20667834	     74.45235013	      2.53021720	    -12.24850576	      2.69806560	     19.58090551	     71.18512535
     15.00000000	      0.94457899	      3.81962149	      3.11424352	      0.79844102	      0.94267173	      0.72148872	      0.08072681	     -4.78158555	      4.15788098	     55.49320276	      0.96853910	     -9.49527571	    -12.36462733	     -7.49999987	     19.45890039	      4.93055074	      5.83319802	     29.47564566	      0.51444707	      9.08115279	    -10.04698458	     -7.49999987	    -18.92750203	     -8.83564737	      4.68850768	      3.80425248	    -14.38191450	     10.58265890	     39.59219424	     74.60623686	      2.67357282	    -12.32968645	      2.67991249	     20.12452266	     71.20675128
     15.01666670	      1.25052931	      3.09544811	      2.72245897	      0.79948435	      0.94497054	      0.72132593	      2.50960280	     -4.05608073	      4.03465645	     58.21321947	      1.01601235	     -6.68042698	    -13.40319118	     -7.49999987	     17.35148931	      4.08475319	      5.70665368	     28.22353789	      0.49259366	      9.12568097	    -10.39372486	     -7.49999987	    -19.15376090	     -8.16340241	      4.32907695	      3.01618279	    -14.20592506	     11.01048913	     40.31912499	     74.16021280	      2.65279387	    -12.37262277	      2.26488069	     21.25822702	     70.60078920
     15.03333330	      1.46071391	      2.27651415	      2.38480631	      0.79810584	      0.94651426	      0.71811064	      5.12038411	     -3.42076834	      3.97782871	     60.10079058	      1.04895668	     -3.11129460	    -14.80688313	     -7.49999987	     15.36513051	      3.18544046	      5.58117109	     26.98616665	      0.47099746	      9.26606249	    -10.54415047	     -7.49999987	    -19.30859236	     -7.33900822	      4.07480550	      2.25767598	    -14.19560352	     11.54920439	     41.05555069	     74.30889542	      2.82172530	    -12.39502524	      2.07333810	     22.23933357	     70.60698895
     15.05000000	      1.55656158	      1.37205965	      2.10102445	      0.79052481	      0.94723899	      0.71150295	      8.12337619	     -2.91893585	      4.06266871	     61.33185278	      1.07044277	      0.17063781	    -15.97545514	     -7.49999987	     13.57897993	      2.27606470	      5.53362317	     25.65030288	      0.44768224	      9.60762799	    -10.42083136	     -7.49999987	    -19.67269164	     -6.35420044	      3.80958274	      1.83480587	    -14.36811613	     12.13546032	     41.87743502	     74.43920797	      3.30962472	    -12.28130673	      1.78703590	     23.44407503	     70.60875964
     15.06666670	      1.34592983	      0.51546719	      1.85597805	      0.78040363	      0.94886318	      0.70506702	     11.72777692	     -2.56892615	      4.28517448	     61.98873444	      1.08190752	      2.09128486	    -17.12355534	     -7.49999987	     12.24824791	      1.50979901	      5.63425135	     24.21036837	      0.42255064	      9.92079602	    -10.48645941	     -7.49999987	    -20.10890525	     -5.30505059	      3.37665661	      1.67226583	    -14.55758714	     12.61848702	     43.02587291	     73.28598179	      3.82911010	    -12.23677242	      1.25847682	     25.33186399	     69.64690313
     15.08333330	      1.13908767	     -0.39866124	      1.91038103	      0.77457746	      0.95076079	      0.70109256	     15.07452393	     -2.19797107	      4.15342402	     61.73645986	      1.07750449	      3.55921512	    -17.38662279	     -7.49999987	     11.11370743	      0.75502871	      5.92824759	     23.02405310	      0.40184553	     10.49728907	    -10.25648499	     -7.49999987	    -20.57749688	     -4.03523102	      2.80249788	      1.57932536	    -14.73387863	     12.95385648	     43.55996742	     73.26894033	      4.92922035	    -12.19566202	      1.19871044	     26.22792375	     69.64867709
     15.10000000	      0.73796178	     -0.93384020	      1.75033721	      0.77249568	      0.95226003	      0.70011348	     18.21684398	     -1.99182232	      4.28883969	     60.63121151	      1.05821427	      4.46771285	    -17.42400738	     -7.49999987	     10.22315341	      0.33322362	      5.84617720	     22.09276706	      0.38559153	     11.28516710	    -10.16541113	     -7.49999987	    -20.74854501	     -3.31021003	      2.23536344	      1.28091272	    -14.61226563	     13.14921709	     44.23145262	     72.98133313	      5.75016098	    -12.36871106	      1.13418449	     27.45402911	     69.44639763
     15.11666670	      0.62291740	     -1.66967029	      1.75255603	      0.76988246	      0.95468429	      0.69999103	     20.28443054	     -1.51285212	      4.01406181	     58.16363298	      1.01514690	      4.79934704	    -17.43532649	     -7.49999987	      9.08272748	     -0.32019228	      6.00204248	     21.29024065	      0.37158480	     11.35734783	    -10.55715376	     -7.49999987	    -21.24551271	     -2.23551666	      1.68948711	      1.03458585	    -14.63157088	     13.66658924	     44.85645091	     73.24640570	      6.86456523	    -12.44800463	      1.18762256	     27.72282321	     69.70660165
     15.13333330	      0.59592856	     -2.23148036	      1.70776153	      0.76615129	      0.95651913	      0.70033395	     21.79105633	     -1.17709786	      3.69660482	     54.91201645	      0.95839549	      4.92093337	    -17.17496476	     -7.49999987	      8.01247705	     -0.83919965	      6.20735739	     20.76434095	      0.36240612	     11.58140230	    -11.02244540	     -7.49999987	    -21.98031191	     -1.42458366	      1.21247058	      0.83927891	    -14.71743766	     14.22180111	     45.86865433	     73.53671221	      8.04985088	    -12.66858163	      1.37633420	     28.47644997	     70.09737108
     15.15000000	      0.46914028	     -2.51716844	      1.43182601	      0.76273399	      0.95734719	      0.70044395	     23.12379890	     -1.08310906	      3.64984646	     51.13859957	      0.89253694	      4.55965683	    -16.95743648	     -7.49999987	      7.08382961	     -1.12867640	      6.29689390	     20.23485790	      0.35316489	     11.66115601	    -11.46048639	     -7.49999987	    -22.63921127	     -1.03233033	      0.75852617	      0.82935799	    -14.57115231	     14.45776184	     46.83558134	     72.73353597	      8.98746215	    -13.04403153	      1.35142003	     30.04055105	     69.64274554
     15.16666670	      0.28815084	     -2.81079802	      1.18768676	      0.75976002	      0.95608971	      0.69947148	     24.36555893	     -1.15755705	      3.41825464	     47.01672821	      0.82059671	      4.33181944	    -16.16163212	     -7.49999987	      6.30571739	     -1.41695559	      6.52476461	     19.84649694	      0.34638672	     12.08790823	    -11.54271124	     -7.49999987	    -23.10949364	     -0.55010975	      0.77992423	      0.64531976	    -14.57847961	     14.25204925	     47.77128764	     74.53239170	     10.50371189	    -13.42927770	      2.44222185	     30.85594034	     72.26329469
